HIERARCHY
ROOT Hips
{
 OFFSET 0.000000 0.000000 0.000000
 CHANNELS 6 Xposition Yposition Zposition Yrotation Xrotation Zrotation
 JOINT Chest
 {
  OFFSET 0.000000 9.585900 0.002600
  CHANNELS 3 Yrotation Xrotation Zrotation
  JOINT Chest2
  {
   OFFSET 0.000000 9.601200 -0.005300
   CHANNELS 3 Yrotation Xrotation Zrotation
   JOINT Chest3
   {
    OFFSET 0.000000 9.561800 0.000000
    CHANNELS 3 Yrotation Xrotation Zrotation
    JOINT Chest4
    {
     OFFSET 0.000000 9.552100 0.000000
     CHANNELS 3 Yrotation Xrotation Zrotation
     JOINT Neck
     {
      OFFSET 0.000000 14.453000 0.000000
      CHANNELS 3 Yrotation Xrotation Zrotation
      JOINT Head
      {
       OFFSET 0.000000 8.936500 -0.011300
       CHANNELS 3 Yrotation Xrotation Zrotation
       End Site
       {
        OFFSET 0.000000 17.073600 -0.006000
       }
      }
     }
     JOINT RightCollar
     {
      OFFSET -2.921100 9.558500 0.000000
      CHANNELS 3 Yrotation Xrotation Zrotation
      JOINT RightShoulder
      {
       OFFSET -13.519700 0.000000 0.000000
       CHANNELS 3 Yrotation Xrotation Zrotation
       JOINT RightElbow
       {
        OFFSET 0.000000 -29.696600 0.000000
        CHANNELS 3 Yrotation Xrotation Zrotation
        JOINT RightWrist
        {
         OFFSET 0.000000 -24.004700 0.000000
         CHANNELS 3 Yrotation Xrotation Zrotation
         End Site
         {
          OFFSET 0.000000 -17.728500 0.000000
         }
        }
       }
      }
     }
     JOINT LeftCollar
     {
      OFFSET 2.921100 9.558500 0.000000
      CHANNELS 3 Yrotation Xrotation Zrotation
      JOINT LeftShoulder
      {
       OFFSET 13.519700 0.000000 0.000000
       CHANNELS 3 Yrotation Xrotation Zrotation
       JOINT LeftElbow
       {
        OFFSET 0.000000 -29.696600 0.000000
        CHANNELS 3 Yrotation Xrotation Zrotation
        JOINT LeftWrist
        {
         OFFSET 0.000000 -24.004700 0.000000
         CHANNELS 3 Yrotation Xrotation Zrotation
         End Site
         {
          OFFSET 0.000000 -17.728500 0.000000
         }
        }
       }
      }
     }
    }
   }
  }
 }
 JOINT RightHip
 {
  OFFSET -7.771700 -0.012900 -0.001300
  CHANNELS 3 Yrotation Xrotation Zrotation
  JOINT RightKnee
  {
   OFFSET 0.000000 -40.869800 0.001200
   CHANNELS 3 Yrotation Xrotation Zrotation
   JOINT RightAnkle
   {
    OFFSET 0.000000 -39.717900 0.002100
    CHANNELS 3 Yrotation Xrotation Zrotation
    JOINT RightToe
    {
     OFFSET 0.000000 -4.965400 11.033500
     CHANNELS 3 Yrotation Xrotation Zrotation
     End Site
     {
      OFFSET 0.000000 -1.423100 5.872300
     }
    }
   }
  }
 }
 JOINT LeftHip
 {
  OFFSET 7.771700 -0.012900 -0.001300
  CHANNELS 3 Yrotation Xrotation Zrotation
  JOINT LeftKnee
  {
   OFFSET 0.000000 -40.869800 0.001200
   CHANNELS 3 Yrotation Xrotation Zrotation
   JOINT LeftAnkle
   {
    OFFSET 0.000000 -39.717900 0.002100
    CHANNELS 3 Yrotation Xrotation Zrotation
    JOINT LeftToe
    {
     OFFSET 0.000000 -4.965400 11.033500
     CHANNELS 3 Yrotation Xrotation Zrotation
     End Site
     {
      OFFSET 0.000000 -1.423100 5.872300
     }
    }
   }
  }
 }
}
MOTION
Frames: 5
Frame Time: 0.008333
-239.015237 56.772637 144.188560 174.283446 -47.977534 0.162585 -0.217531 25.213279 3.526936 -0.161685 4.066323 0.644838 -0.198420 6.461693 1.052915 -0.443032 20.864434 3.281453 -1.413651 17.445315 -3.546406 -1.329037 -3.371482 -6.113494 7.529382 -0.390089 -5.719631 27.035116 -37.631296 -22.084289 -170.821944 -53.286630 -158.299352 14.083187 -9.043518 -61.642566 -12.396858 -8.645575 -6.746701 -6.563040 -35.328902 -2.490196 157.727276 -61.813151 177.802393 -11.610746 -4.483511 23.860276 10.374572 -29.109693 -2.285857 -13.309568 64.092227 -13.859763 2.089791 31.495279 1.219053 -1.308811 -18.543693 8.370759 -10.077269 -26.426439 0.164313 30.391643 65.319761 30.995743 -16.246553 9.352850 -7.065521 0.264546 0.365973 0.112280
-239.014175 56.772847 144.191140 174.288548 -47.989027 0.136527 -0.273477 25.252218 3.497955 -0.112382 4.049671 0.664046 -0.303169 6.527908 1.016167 -0.436157 20.853042 3.283077 -1.408098 17.416958 -3.545084 -1.382350 -3.436241 -6.078774 7.554840 -0.474620 -5.754661 27.039419 -37.639328 -22.117812 -171.292230 -53.129029 -157.984998 13.563225 -8.385085 -61.011463 -12.404762 -8.775479 -6.737272 -6.389079 -35.065239 -2.633887 157.295772 -61.864554 178.192779 -11.426967 -4.603371 24.062016 10.351055 -29.098798 -2.243468 -13.313836 64.081746 -13.886568 2.101975 31.490395 1.235937 -1.315014 -18.534417 8.373152 -10.103488 -26.412433 0.194858 30.398559 65.319408 30.991102 -16.239634 9.364169 -7.069230 0.259572 0.360280 0.116226
-239.014803 56.773217 144.193557 174.300442 -48.003093 0.108700 -0.338120 25.286155 3.476770 -0.166325 4.080814 0.647291 -0.291804 6.529422 1.021852 -0.468936 20.859474 3.268758 -1.401048 17.389935 -3.552315 -1.389412 -3.491124 -6.083672 7.597799 -0.547508 -5.806625 27.045128 -37.652829 -22.151011 -171.694740 -52.977800 -157.720096 13.082711 -7.775460 -60.420031 -12.390077 -8.898233 -6.743997 -6.219788 -34.813413 -2.766421 156.937215 -61.906240 178.516476 -11.242543 -4.723549 24.259482 10.321395 -29.081907 -2.197606 -13.324720 64.065973 -13.923339 2.092602 31.485492 1.235974 -1.305338 -18.523362 8.381261 -10.130853 -26.397257 0.219757 30.408956 65.313449 30.990533 -16.254154 9.387360 -7.068459 0.250949 0.352254 0.113183
-239.016120 56.771972 144.197438 174.334336 -48.005856 0.061060 -0.422737 25.304300 3.457213 -0.195463 4.094358 0.643291 -0.290504 6.535060 1.021882 -0.526123 20.874801 3.251931 -1.392679 17.365042 -3.564028 -1.369090 -3.536711 -6.108535 7.652048 -0.609786 -5.864444 27.043400 -37.671916 -22.178288 -172.046832 -52.835794 -157.483230 12.630916 -7.208748 -59.862010 -12.355462 -9.012192 -6.755910 -6.061536 -34.575555 -2.890287 156.634799 -61.942068 178.787877 -11.061982 -4.836078 24.452831 10.286318 -29.079817 -2.165018 -13.331282 64.057734 -13.936791 2.084593 31.483334 1.233861 -1.298014 -18.517341 8.384573 -10.169387 -26.391595 0.245014 30.390427 65.300167 30.979862 -16.275454 9.408988 -7.094640 0.268761 0.362150 0.121093
-239.017474 56.771878 144.200272 174.352335 -48.019834 0.019553 -0.496071 25.328578 3.442172 -0.206622 4.101399 0.642896 -0.308315 6.545557 1.020820 -0.584681 20.888565 3.237683 -1.384756 17.342187 -3.578752 -1.348571 -3.578510 -6.138743 7.712242 -0.663953 -5.923199 27.030501 -37.694386 -22.198928 -172.373342 -52.702489 -157.250933 12.201050 -6.677743 -59.339186 -12.306873 -9.117497 -6.772113 -5.922392 -34.355966 -3.004009 156.371457 -61.977367 179.022429 -10.891825 -4.939430 24.640336 10.260682 -29.068537 -2.130162 -13.332060 64.052535 -13.939524 2.081162 31.481910 1.240514 -1.293879 -18.513017 8.380446 -10.198634 -26.374607 0.274138 30.390987 65.297465 30.983589 -16.284107 9.412240 -7.106430 0.278088 0.368543 0.123541
